<svg width="800" height="600" viewBox="0 0 800 600" fill="none" xmlns="http://www.w3.org/2000/svg">
  <rect width="800" height="600" rx="24" fill="#F5E7D0"/>
  <rect y="420" width="800" height="180" fill="#D9B88A"/>
  <rect x="110" y="250" width="140" height="170" rx="8" fill="#8B6A4C"/>
  <rect x="270" y="210" width="140" height="210" rx="8" fill="#A07A56"/>
  <rect x="450" y="180" width="140" height="240" rx="8" fill="#6F4E34"/>
  <rect x="620" y="240" width="90" height="180" rx="8" fill="#7A5A3B"/>
  <path d="M80 470C180 420 250 392 330 410C420 430 530 500 720 460" stroke="#5B3E2B" stroke-width="14" stroke-linecap="round"/>
  <circle cx="620" cy="160" r="42" fill="#E8C58D"/>
  <rect x="120" y="120" width="90" height="26" rx="10" fill="#F8F2E8"/>
  <rect x="275" y="150" width="105" height="26" rx="10" fill="#F8F2E8"/>
  <rect x="470" y="140" width="90" height="26" rx="10" fill="#F8F2E8"/>
</svg>